<svg version="1.1" xmlns="http://www.w3.org/2000/svg" xmlns:xlink="http://www.w3.org/1999/xlink"
    width="1023" height="548" viewBox="0,0,1023,548" filter="invert(1)">
    <g fill="none" fill-rule="nonzero" stroke="none" stroke-width="1" stroke-linecap="butt"
        stroke-linejoin="miter" stroke-miterlimit="10" stroke-dasharray="" stroke-dashoffset="0"
        font-family="none" font-weight="none" font-size="none" text-anchor="none"
        style="mix-blend-mode: normal">
        <g>
            <path
                d="M1023,0c161.01935,86.25474 161.01935,461.74526 0,548c-300.58904,161.01935 -722.41096,161.01935 -1023,0c-161.01935,-86.25474 -182.66667,-1193.85077 1023,-548z"
                fill="#fefefe" />
            <path
                d="M447.3796,79.54201c41.22161,0.02778 82.44322,0.06139 123.66484,0.08738c106.64867,0.06726 275.8346,-24.54711 335.71338,95.21045c23.93669,47.87338 25.59588,54.08268 32.55469,114.72266c3.63424,31.66929 -9.74646,65.27931 -22.91797,93.25391c-60.87296,129.28634 -245.371,120.31182 -366.70703,106.99609c-21.29098,-2.33653 -42.31154,-26.94942 -64.44141,-23.48828c-35.99681,5.62994 -111.37089,70.27804 -133.24609,14.67578c-7.8571,-19.97113 29.65603,-72.15004 41.92676,-90.72266c3.26766,-4.94584 9.85391,-8.7622 10.02637,-14.6875c0.83156,-28.57044 -13.13899,-33.66485 -11.20312,-73.02734c0.73607,-14.96666 28.44538,-19.64524 36.66797,-17.10156c7.51337,2.32427 13.52996,8.51167 18.58203,14.53906c2.78871,3.32709 22.42831,78.52322 22.125,81.14844c-1.50668,13.04059 -20.71918,20.73767 -20.125,33.85156c0.05204,1.14848 18.49602,-7.40153 21.14648,-7.72266c11.67763,-1.41484 23.47063,-3.5706 35.19336,-2.59766c3.86234,0.32056 6.07007,5.12405 9.75391,6.32813c59.92544,19.58678 62.69356,23.1534 105.95323,23.20388c22.95513,0.02679 68.94558,6.60336 89.79028,0.13606c41.99413,-13.02914 85.07258,-23.91447 124.74673,-42.86777c10.05685,-4.8044 13.68481,-17.59666 20.41602,-26.47998c28.04542,-37.01214 18.65943,-77.84052 15,-125c-1.5997,-20.61554 -43.26146,-73.9318 -64.17187,-79.44531c-27.18389,-7.16766 -54.41471,-14.17249 -81.76271,-20.68599c-17.43966,-4.15362 -43.04531,-0.02255 -60.40871,-0.03736c-54.25544,-0.04628 -108.51086,-0.11015 -162.7663,-0.15866c-33.02418,-0.02953 -66.04836,-0.0642 -99.07254,-0.09345c-13.94402,-0.01235 -74.82047,3.78582 -86.56786,-6.26672c-10.93233,-9.35507 -16.54928,-35.96374 -1.5625,-46.1875c8.90482,-6.07473 86.38744,-7.61352 131.6921,-7.58299z"
                fill="#fd8101" />
            <path
                d="M428.3081,181.51595c26.36243,-0.02042 91.55912,-7.82193 78.11378,39.16764c-8.45944,29.56454 -57.324,20.83474 -79.35668,20.82581c-60.8569,-0.02466 -121.71383,-0.03879 -182.57072,-0.06995c-17.51268,-0.00897 -54.96607,5.56881 -69.93198,-7.84179c-6.00714,-5.38286 -8.8195,-14.05598 -10,-22.03516c-3.23427,-21.86083 190.6511,-29.98993 263.7456,-30.04655z"
                fill="#fdcd03" />
            <path
                d="M356.9375,291.4375c10.22048,2.90731 8.10423,19.97986 9.0625,30.5625c2.71621,29.99642 -112.76612,28.99549 -126.17578,13.96094c-23.52611,-26.37685 82.56992,-54.3496 117.11328,-44.52344z"
                fill="#fdcd03" />
            <path
                d="M276.46875,118.12891c-4.42132,29.99325 -90.89865,25.62748 -104.77734,11.9375c-6.38639,-6.29955 -7.36304,-17.12106 -6.69141,-26.06641c1.51959,-20.23907 119.29718,-38.97744 111.46875,14.12891z"
                fill="#fdcd03" />
            <path
                d="M791.67188,264.58984c22.46791,5.47678 23.91474,53.71787 -22.60156,60.69531c-24.05589,3.60838 -40.77709,-42.49879 -21.28906,-55.47656c12.26295,-8.16634 29.57649,-8.70797 43.89063,-5.21875z"
                fill="#fc8204" />
            <path
                d="M571.3125,265.625c23.07671,13.85274 11.97725,54.61118 -12.86719,58.90234c-43.51665,7.51625 -56.92812,-53.88256 -18.44531,-64.33984c10.22298,-2.77798 22.22964,-0.01486 31.3125,5.4375z"
                fill="#fc8204" />
            <path
                d="M682.42578,265.57422c24.11381,9.3945 10.88545,60.17825 -20.67578,59.80078c-25.87025,-0.3094 -51.94043,-46.6941 -20.05859,-59.75391c12.56482,-5.14695 28.08249,-4.97592 40.73438,-0.04687z"
                fill="#fc8203" />
            <path
                d="M112,185c31.47136,17.30423 9.73518,65.85975 -23.55469,55.34375c-25.04232,-7.91066 -28.01008,-52.19763 0.15234,-57.83984c7.69217,-1.54109 16.52794,-1.28373 23.40234,2.49609z"
                fill="#fdcd04" />
            <path
                d="M487.0753,138.89787c90.33213,-0.05651 185.11747,-9.19109 274.9247,4.10213c2.5441,0.37658 -5.18163,0.54162 -7.71484,0.09766c-3.2977,-0.57795 -6.62,-1.18052 -9.9675,-1.23632c-9.63661,-0.16065 -19.3076,-0.04187 -28.94178,-0.06194c-27.00699,-0.05628 -54.01397,-0.11436 -81.02096,-0.17064c-20.95791,-0.04367 -41.91581,-0.08809 -62.87372,-0.13144c-80.02955,-0.16555 -160.63593,0.67872 -240.4812,-0.49731c-0.74528,-0.01098 -1.7473,-2.00341 156.0753,-2.10213z"
                fill="#ffeac4" />
            <path
                d="M506,202c0.99996,-2.38222 2.64001,4.84964 2.27954,7.40796c-1.18357,8.40009 -3.66647,16.63834 -6.77954,24.52954c-5.20103,13.18386 -42.27704,8.32915 -52.03616,8.33191c-62.02991,0.01751 -124.05996,0.02155 -186.08984,-0.00178c-18.08855,-0.0068 -62.13316,6.36322 -79.37399,-2.26763c-0.57185,-0.28627 1.27901,0.00433 1.91851,0.00575c37.5359,0.08368 75.07179,0.16955 112.6077,0.24957c50.35861,0.10736 100.71725,0.21694 151.07588,0.31218c13.28526,0.02513 39.67988,3.53335 49.27291,-8.75501c6.28731,-8.05384 3.17042,-20.39147 7.125,-29.8125z"
                fill="#fef59b" />
            <path
                d="M764,433c-48.84956,12.20031 -191.78652,15.24374 -182,2c12.38881,-16.76532 41.69169,-0.19117 62.53754,-0.28753c38.31441,-0.17711 121.83452,-2.3049 119.46246,-1.71247z"
                fill="#e48827" />
            <path
                d="M496,235c-8.53882,3.30314 -17.56025,6.38049 -26.7157,6.3774c-22.29128,-0.00753 -44.58261,-0.03488 -66.87389,-0.05466c-51.94205,-0.04609 -103.88415,-0.07314 -155.8262,-0.12392c-18.52209,-0.01811 -43.91959,4.08841 -62.58421,-1.19882c-101.20931,-28.67008 313.5852,-5.61321 312,-5z"
                fill="#edca3a" />
            <path
                d="M268.73594,180.81252c72.95516,0.06016 146.37919,-1.16427 219.26406,0.18748c0.92214,0.0171 -0.9921,1.99852 -1.9144,1.9977c-37.44392,-0.03347 -74.88784,-0.06782 -112.33176,-0.09983c-43.93971,-0.03756 -87.87943,-0.07694 -131.81914,-0.1137c-2.23941,-0.00187 -1.36365,-1.99488 26.80124,-1.97165z"
                fill="#fef3b1" />
            <path
                d="M922,203c1.24396,-0.82145 3.13138,0.7885 4,2c3.40428,4.74807 8.08521,23.39829 9.5,30.25c2.67637,12.9615 12.61361,71.63641 2.5,79.75c-0.94298,0.7565 0.18201,-2.42503 0.04761,-3.62646c-3.45392,-30.87594 -6.45707,-61.81449 -10.80933,-92.57666c-0.71664,-5.06527 -6.41705,-15.01847 -5.23828,-15.79687z"
                fill="#fee5bf" />
            <path
                d="M768,492c-18.51583,1.8822 -33.16074,2.22834 -50.95904,2.20279c-46.32345,-0.06652 -92.73367,0.5815 -139.04096,-0.20279c-1.91588,-0.03245 190.80337,-2.08167 190,-2z"
                fill="#e7861c" />
            <path
                d="M268,131c-4.19299,3.81181 -9.70177,5.99005 -15,8c-9.32603,3.53794 -60.57146,2.56389 -69,-2c-0.80446,-0.4356 1.82964,-0.00511 2.74445,-0.01105c8.53413,-0.05537 17.06824,-0.11563 25.60236,-0.17286c5.44211,-0.03649 56.63978,-6.71299 55.65319,-5.8161z"
                fill="#f3cb2b" />
            <path
                d="M449,308c-0.29814,2.087 -0.39935,-4.62801 -2,-6c-5.56203,-4.76746 -7.00596,0.02515 -11,-2c-3.32392,-1.68537 -0.22419,-7.72351 -2,-11c-2.08681,-3.85031 -31.8205,-0.96526 -26,-1c8.40678,-0.05018 44.52943,-4.70604 41,20z"
                fill="#f08c23" />
            <path
                d="M350,337c1.33287,-0.33517 5.24897,0.42644 4,1c-28.18231,12.94198 -70.75455,7.02258 -100,6c-32.06536,-1.12118 93.53127,-6.37921 96,-7z"
                fill="#f0cc31" />
            <path
                d="M336.78174,345.34058c-15.74847,2.92882 -35.20315,-0.12826 -51.01611,-0.19409c-11.27783,-0.04695 -42.47659,5.01667 -33.76562,-2.14648c3.72799,-3.06558 100.5912,-0.59959 84.78174,2.34058z"
                fill="#fef5b4" />
            <path
                d="M363,439c1.49485,-2.68512 -0.21375,6.49925 -2,9c-5.25276,7.35386 -7.1525,14.38809 -7.13281,27.48828c0.00597,3.97057 2.38479,7.26765 3.13281,9.51172c0.52705,1.58114 0.49878,6.59028 0,5c-2.5818,-8.23169 -7.31269,-16.53358 -6.30469,-25.10156c1.11673,-9.49216 7.65568,-17.54769 12.30469,-25.89844z"
                fill="#f19c45" />
            <path
                d="M249.43066,79.61182c1.93763,0.00554 11.70734,-0.49324 10.56934,3.38818c-0.75027,2.55895 -5.34964,0.29448 -8,0c-11.92838,-1.32538 -25.13559,-1.1878 -37.69879,-1.21607c-2.79592,-0.00629 -5.59186,-0.00557 -8.38779,-0.01262c-6.76944,-0.01707 -12.41882,0.67119 -19.05498,1.30638c-2.27589,0.21784 -9.09652,0.38937 -6.85844,-0.07768c7.75295,-1.61793 45.79956,-3.4558 69.43066,-3.38818z"
                fill="#f3ce37" />
            <path
                d="M880,272c-0.33362,14.01189 -1.23031,28.00529 -2,42c-0.17068,3.10341 -3.75161,13.77498 -4,13c-3.55299,-11.08533 6.05385,-57.26185 6,-55z"
                fill="#fde9cb" />
            <path
                d="M442,291c0.2357,0.70711 -1.26798,1.14039 -2,1c-9.81401,-1.88214 -19.49083,-4.87295 -29.46094,-5.54687c-1.59483,-0.1078 -6.01908,2.15073 -4.53906,1.54688c4.86104,-1.98334 31.54684,-10.35949 36,3z"
                fill="#fef4d9" />
            <path
                d="M393,392c1.60225,-1.58107 -2.04776,9.13252 -2.66406,10.04297c-2.93541,4.3364 -10.97664,12.16053 -11.33594,13.95703c-0.33333,1.66667 1.94281,3.58579 1,5c-0.94281,1.41421 -5.10537,2.6964 -5,1c0.72295,-11.63947 13.10395,-25.16865 18,-30z"
                fill="#f29838" />
            <path
                d="M923,370c-3.23871,2.56197 2.14729,-7.97578 3.3125,-11.9375c2.16833,-7.37233 5.25917,5.15692 -3.3125,11.9375z"
                fill="#fdddb4" />
            <path
                d="M236,329c0.7192,1.64468 3.2693,3.7307 2,5c-1.2693,1.2693 -3.95665,-0.5393 -5,-2c-4.80932,-6.73304 -1.05753,-12.27886 3,-3z"
                fill="#fefad4" />
            <path d="M495,240c-4.84748,0 16.08275,0 0,0z" fill="#fdefab" />
            <path
                d="M370.3125,498.5625c2.99153,0.89746 15.50352,5.17297 19.89063,3.63281c4.48536,-1.57465 8.70195,-4.25434 13.42188,-4.82031c1.45327,-0.17426 5.79702,-0.72171 4.375,-0.375c-18.43919,4.49574 -46.30638,-1.02316 -37.6875,1.5625z"
                fill="#eb8d2d" />
            <path d="M920,375c2.48477,-15.6593 -0.94083,5.92922 0,0z" fill="#ef8c26" />
            <path
                d="M403,378c-0.73988,0.14985 1.13717,-1.2488 1.0625,-2c-1.31037,-13.18315 11.93261,-0.63192 -1.0625,2z"
                fill="#f19639" />
            <path
                d="M125,199c4.63358,8.10877 0.78333,18.83256 -1,28c-0.3519,1.80899 1.05942,-3.59556 1,-5.4375c-0.30865,-9.56823 -0.59628,-23.606 0,-22.5625z"
                fill="#fef0a6" />
            <path
                d="M353,485c-0.2345,1.67146 -2.6049,-2.40217 -3.07422,-4.02344c-3.1979,-11.04728 4.46664,-5.90156 3.07422,4.02344z"
                fill="#feefd4" />
            <path
                d="M97.6875,238.5625c4.79322,-0.23903 18.93508,-2.85241 14.3125,-1.5625c-6.31577,1.76238 -24.13877,2.05252 -14.3125,1.5625z"
                fill="#f1ce32" />
            <path
                d="M121,193c3.75985,4.31976 6.00141,10.25514 6.32813,15.97266c0.37575,6.5757 -6.05547,25.57348 -5.32812,19.02734c1.85189,-16.66699 -3.44675,-37.81111 -1,-35z"
                fill="#f5cd25" />
            <path
                d="M794.70703,152.44971c2.82643,1.75375 10.76122,3.32048 8.29297,5.55029c-2.72328,2.46021 -19.45769,-8.39485 -20,-9c-3.73614,-4.16912 3.06167,-1.91458 11.70703,3.44971z"
                fill="#feebc8" />
            <path
                d="M839,390c-1.04193,-0.74207 1.55003,-2.0354 2.3125,-3.0625c4.92078,-6.62866 3.93883,7.51471 -2.3125,3.0625z"
                fill="#f19c44" />
            <path
                d="M361,442c-1.23669,0.49837 -0.59628,-2.80743 0,-4c0.44242,-0.88484 2.9763,-4.46445 4,-6c4.58031,-6.87046 3.84931,6.83685 -4,10z"
                fill="#feeed4" />
            <path
                d="M798,316c-4.47686,1.919 4.06292,-9.59062 4.15234,-9.88672c2.552,-8.44995 7.66715,4.82032 -4.15234,9.88672z"
                fill="#feecd1" />
            <path
                d="M800,311c-0.69283,1.18696 0.09988,-2.9614 1,-4c4.26532,-4.92152 6.25348,-8.42677 -1,4z"
                fill="#f29b42" />
            <path
                d="M169,196c1.70363,-0.90384 0.4365,3.89095 0.07422,5.78516c-1.26595,6.6191 -2.26425,15.55832 -0.07422,22.21484c0.4167,1.26655 0.29037,5.30133 0,4c-2.32298,-10.41065 -2.03291,-30.92147 0,-32z"
                fill="#f5d753" />
            <path
                d="M364,304c0.05526,0.88412 -0.95768,-1.60384 -1.75,-2c-5.61912,-2.80956 1.42906,-3.13499 1.75,2z"
                fill="#f7d22f" />
            <path
                d="M680,264c0.73923,0.09538 1.74044,1.91456 1,2c-0.91977,0.10613 -10.93979,-3.28255 -1,-2z"
                fill="#ed9b47" />
            <path
                d="M466,391c-0.07998,-0.02784 2.21614,-6.20454 2.24609,-6.64062c0.46533,-6.77515 8.87688,10.51266 -2.24609,6.64063z"
                fill="#fee9cd" />
            <path
                d="M583,300c-0.04654,0.89151 0.02776,-1.79427 -0.11328,-2.67578c-1.19336,-7.45848 1.58124,-25.44198 0.11328,2.67578z"
                fill="#fddfb6" />
            <path d="M73,228c-6.69043,-3.34522 0.23753,0.11877 0,0z" fill="#f6d345" />
            <path
                d="M436,486c-0.16809,0.80036 -17.07047,7.37763 -20.11719,8.69141c-2.44586,1.05468 -10.23302,2.56204 -7.88281,1.30859c12.16728,-6.48922 28.6851,-13.26217 28,-10z"
                fill="#eb8c27" />
            <path
                d="M883,139c4.79309,4.79309 3.34595,7.34595 7,11c1.90029,1.90029 6.39972,8.20978 4,7c-7.16833,-3.61379 -16.33333,-23.33333 -11,-18z"
                fill="#fceed1" />
            <path
                d="M456,477c15.28788,-2.06301 -28.37786,13.70821 -27,11c2.13363,-4.19369 25.0132,-10.73189 27,-11z"
                fill="#fdeac9" />
            <path
                d="M394,300c0.93598,-1.89824 0.54812,4.2105 0.53345,6.3269c-0.03811,5.49485 -0.61612,10.93569 -0.58228,16.45239c0.01477,2.40691 0.87337,9.48202 0.04883,7.2207c-5.50379,-15.09428 -2.11867,-25.70319 0,-30z"
                fill="#f19e4c" />
            <path
                d="M869.05078,446.75781c-1.4397,0.96603 -6.02184,2.6785 -5.05078,1.24219c3.69639,-5.46738 13.36265,-6.81942 5.05078,-1.24219z"
                fill="#feeed5" />
            <path
                d="M744,276c0.42416,-1.61179 0.48606,3.40578 0,5c-2.90857,9.5398 -4.28221,21.24546 -4,18c0.67413,-7.75249 2.0196,-15.47447 4,-23z"
                fill="#f39c41" />
            <path
                d="M838,183c-0.10383,1.37044 -2.82149,1.70711 -4,1c-3.07452,-1.84471 4.09091,-2.19985 4,-1z"
                fill="#fde9c9" />
            <path d="M566,493c-1.58881,-0.07566 0.09755,0.00465 0,0z" fill="#feefd4" />
            <path
                d="M457,402c3.04047,-1.52023 -3.38061,6.89364 -2,10c0.82348,1.85283 7.21655,-2.62207 6,-1c-2.52982,3.3731 -13.41812,7.97073 -12,4c1.71132,-4.79169 3.44905,-10.72453 8,-13z"
                fill="#fddfb8" />
            <path
                d="M552.375,322.625c1.20625,0.15065 8.31029,0.22911 7.625,0.375c-6.85319,1.45899 -9.50348,-0.60961 -7.625,-0.375z"
                fill="#eb943c" />
            <path
                d="M235,300c1.23441,5.15546 -1.1584,11.51799 -1.5625,16.5625c-0.17174,2.14392 -0.05831,8.55459 -0.4375,6.4375c-1.35294,-7.5537 1.30576,-25.89947 2,-23z"
                fill="#f4d443" />
            <path
                d="M631,305c-0.14253,1.78939 -0.87864,-3.5983 -2,-5c-3.91756,-4.89696 2.55941,-2.02301 2,5z"
                fill="#fef1da" />
            <path
                d="M874,246c2.02329,7.91733 4.60185,15.83794 5,24c0.47046,9.64433 -5.44975,-25.75993 -5,-24z"
                fill="#fbdab0" />
            <path
                d="M171,91c1.22935,3.70283 -3.51607,7.12856 -4,11c-0.66152,5.29215 -0.04613,21.33313 0,16c0.07869,-9.09789 3.32012,-29.04781 4,-27z"
                fill="#f5d852" />
            <path d="M656,325c5.72434,-5.83179 -9.22201,9.39512 0,0z" fill="#fff9e2" />
            <path
                d="M451,318c3.72678,7.45356 5.3657,15.82849 7,24c1.6343,8.17151 -8.49071,-26.98142 -7,-24z"
                fill="#f19c43" />
            <path
                d="M393.66016,327.84375c0.10682,2.06108 1.11619,7.20699 -0.66016,6.15625c-4.03388,-2.3861 0.64268,-6.49339 0.66016,-6.15625z"
                fill="#fef4dd" />
            <path d="M765,432c-0.39893,-1.4212 1.75902,6.26652 0,0z" fill="#ee9434" />
            <path
                d="M116,188c-0.31001,0.76591 -1.24357,-1.26512 -2.0625,-1.375c-9.20877,-1.23556 -18.4715,-2.13764 -27.75,-2.625c-1.11203,-0.05841 -4.30052,-0.96522 -3.1875,-1c10.66667,-0.33333 37.17422,-5.31279 33,5z"
                fill="#fef9c5" />
            <path
                d="M278,115c-0.20176,1.06591 -0.94585,-1.96216 -1.26172,-3c-2.23309,-7.3373 3.18596,-7.16587 1.26172,3z"
                fill="#fef3b6" />
            <path
                d="M470.19922,410.54688c-2.406,0.05628 -8.46845,1.49788 -7.19922,-0.54687c2.69049,-4.33444 12.47166,0.42354 7.19922,0.54688z"
                fill="#ee9132" />
            <path
                d="M528.125,481.0625c2.65529,1.25008 10.80984,3.9375 7.875,3.9375c-9.10928,0 -10.37407,-5.11403 -7.875,-3.9375z"
                fill="#ec943a" />
            <path
                d="M740,299c1.01368,5.57526 6.51865,9.53038 8,15c0.74959,2.76773 -3.93506,-4.33765 -5,-7c-1.20422,-3.01055 -3.48797,-10.68386 -3,-8z"
                fill="#fce9c7" />
            <path d="M694,304c-2.29596,-1.30447 4.43715,2.52101 0,0z" fill="#fddcb7" />
            <path
                d="M754,494c-2.98953,-0.32973 5.72019,-1.94647 8.6875,-2.4375c6.47872,-1.07209 -3.68069,2.98972 -8.6875,2.4375z"
                fill="#fde8c4" />
            <path d="M467,355c-4.82971,4.82971 0.5542,-0.5542 0,0z" fill="#fee3bf" />
            <path
                d="M164,205c-0.03952,-0.90899 0.95739,1.5958 1.11328,2.49219c1.19213,6.85473 3.58617,13.55668 3.88672,20.50781c0.0432,0.99907 -2.78757,0.97718 -3,0c-1.63477,-7.51996 -1.66572,-15.31167 -2,-23z"
                fill="#fefbda" />
            <path d="M762,143c-3.60038,0.77477 3.32079,-0.7146 0,0z" fill="#fdeed2" />
            <path
                d="M265,137c-1.54746,0.61898 -5.52705,1.58114 -5,0c0.58532,-1.75595 8.70304,-1.48122 5,0z"
                fill="#fdf5c1" />
            <path
                d="M165.875,111.375c-0.1734,2.20191 1.79372,8.07201 0.125,6.625c-5.79681,-5.02666 -0.06703,-7.3611 -0.125,-6.625z"
                fill="#fef9d6" />
            <path d="M935,336c-2.68997,6.53942 2.89731,-7.04345 0,0z" fill="#fee8c6" />
            <path d="M768,82c-20.32257,0 3.70096,0 0,0z" fill="#fef3d7" />
            <path
                d="M186,185c-1.72982,1.10719 -15.79755,11.13497 -16,11c-1.84372,-1.22915 17.77564,-12.13652 16,-11z"
                fill="#f4d441" />
            <path d="M483,401c5.69024,-1.76742 -7.848,2.43764 0,0z" fill="#feebcb" />
            <path
                d="M363,300c-0.12732,-2.63988 7.74147,22.96557 3,20c-5.7154,-3.57472 -2.7128,-14.04524 -3,-20z"
                fill="#fef6ce" />
            <path
                d="M838,465c-4.73599,3.8749 -10.31848,6.72739 -16,9c-1.54746,0.61898 2.82149,-1.82149 4,-3c1.56683,-1.56683 13.3893,-7.1367 12,-6z"
                fill="#f08b26" />
            <path d="M899,411c0.20457,-3.06853 -0.3915,5.87247 0,0z" fill="#fde2c1" />
            <path d="M382,504c-7.0923,-1.77307 2.54303,0.63576 0,0z" fill="#ee9236" />
            <path d="M638,270c0.98972,7.91775 -0.53907,-4.31257 0,0z" fill="#f29432" />
            <path d="M928,224c-2.92756,3.51107 1.88283,-2.25811 0,0z" fill="#f18615" />
            <path d="M933,240c-1.86853,1.86853 3.22927,-3.22927 0,0z" fill="#f29637" />
            <path d="M928,222c-1.92017,-0.64913 5.32846,1.80133 0,0z" fill="#fdd9ac" />
            <path
                d="M836,392c1.30727,-0.88867 -0.7103,3.12842 -1.49609,4.5c-1.64499,2.87125 -3.74556,5.67199 -6.50391,7.5c-1.69013,1.12008 -7.1247,2.68705 -6,1c3.53251,-5.29877 8.73334,-9.41979 14,-13z"
                fill="#ee953a" />
            <path
                d="M399,390c-1.04335,1.4607 -5.02872,3.79483 -5,2c0.05648,-3.53024 5.47382,-2.66335 5,-2z"
                fill="#f19940" />
            <path d="M405,362c-0.33067,2.64538 0.31299,-2.5039 0,0z" fill="#f0902d" />
            <path d="M442,483c-6.20287,1.72302 24.34199,-6.76166 0,0z" fill="#ee8e2a" />
            <path
                d="M877,330c-0.43188,1.83549 -4.3698,5.849 -4,4c1.34003,-6.70017 6.7977,-15.89021 4,-4z"
                fill="#f39d43" />
            <path
                d="M787,322c-1.44974,0.71644 0.0222,-3.6351 1.25,-4.6875c2.02348,-1.73441 11.60582,-1.66567 -1.25,4.6875z"
                fill="#ef8b24" />
            <path
                d="M638,269c-1.46708,-0.68908 2.58333,-1.95833 3.875,-2.9375c2.41303,-1.82924 0.96703,5.21179 -3.875,2.9375z"
                fill="#ef8b24" />
            <path d="M762,263c-1.35237,4.1283 1.39221,-4.24991 0,0z" fill="#ef902d" />
            <path d="M507,222c-4.83117,-6.86325 12.75641,18.12199 0,0z" fill="#fefbd7" />
            <path d="M572,431c2.71055,0.90352 -6.0784,-2.02613 0,0z" fill="#fff0d1" />
            <path d="M794,421c3.37479,-2.91865 -2.6645,2.30436 0,0z" fill="#ee9030" />
            <path d="M574,314c-2.33429,-4.84149 3.68391,7.6407 0,0z" fill="#fdd8ac" />
            <path
                d="M442,291c0.2357,0.70711 -1.26798,1.14039 -2,1c-4.68719,-0.89891 -8.71597,-3.89646 -13,-6c-2.70946,-1.33039 13.11944,-0.64167 15,5z"
                fill="#feeccb" />
            <path d="M116,189c-4.07726,0.98713 4.09798,-0.99214 0,0z" fill="#f4cf2b" />
            <path
                d="M268,131c-2.48069,3.72104 -14.91043,9.3955 -12,6c2.45429,-2.86334 12.7396,-7.1094 12,-6z"
                fill="#f6cf2d" />
            <path
                d="M826,103c2.4318,1.75098 -5.82873,-1.39485 -8.75,-2.0625c-3.16934,-0.72435 7.72873,1.32715 8.75,2.0625z"
                fill="#eb8d29" />
            <path
                d="M238,334c5.85695,-7.80927 4.90215,4.88155 5,5c0.172,0.20821 10.38444,3.29163 7,4c-11.01356,2.30516 -13.45602,-7.05864 -12,-9z"
                fill="#fdf6c8" />
            <path
                d="M646,264c4.25963,3.75204 -7.94969,8.40837 -13,11c-1.32628,0.6806 0.94591,-2.94591 2,-4c1.64419,-1.64419 6.35324,-11.09304 11,-7z"
                fill="#feeed0" />
            <path
                d="M821,406c-1.49651,0.80581 -0.35974,-3.9802 1,-5c3.06925,-2.30193 14.54405,-3.36987 -1,5z"
                fill="#feeed6" />
            <path d="M858,367c-0.46648,0.38536 3.24756,-2.68276 0,0z" fill="#f29d46" />
            <path d="M783,324c-3.17784,0.39112 12.69028,-1.56188 0,0z" fill="#fde5c4" />
            <path
                d="M241.4375,294.6875c-1.58502,1.4114 -6.55984,5.1138 -5.4375,3.3125c3.84596,-6.17258 14.01604,-10.9514 5.4375,-3.3125z"
                fill="#f5d74a" />
            <path d="M803,158c1.78087,1.04855 -19.30721,-11.3678 0,0z" fill="#fef3da" />
            <path d="M785,83c1.79861,0.44965 -5.49747,-1.37437 0,0z" fill="#feefcf" />
            <path d="M831,469c0.56569,-1.52735 -2.39921,6.47787 0,0z" fill="#feedd0" />
            <path d="M843,462c-2.69743,-3.6441 4.78602,6.46569 0,0z" fill="#fde9c9" />
            <path d="M364,439c-0.26042,-0.52083 2.56476,5.12952 0,0z" fill="#ee9334" />
            <path d="M237,334c-4.05993,3.73236 0.49122,-0.45158 0,0z" fill="#fef2b8" />
            <path
                d="M365,322c0.94868,2.84605 0.88226,6.13266 0,9c-0.74656,2.42633 -7.35901,5.51308 -7,3c0.6549,-4.58427 6.35882,-13.92354 7,-12z"
                fill="#fef5be" />
            <path
                d="M521,306c-0.614,1.35839 -3.67662,-0.54479 -4,-2c-1.15696,-5.20633 4.1076,1.76194 4,2z"
                fill="#feeac9" />
            <path d="M853,118c-4.51796,-1.6429 4.35201,1.58255 0,0z" fill="#fde7c5" />
            <path d="M768,491c6.61618,0.41351 -5.36437,-0.33527 0,0z" fill="#ed8f33" />
            <path d="M491,465c6.3123,-0.90176 -4.48826,0.64118 0,0z" fill="#fee7c2" />
            <path
                d="M772,429c0.13197,1.64968 -14.98761,4.07618 -15,4c-0.30973,-1.90394 14.73418,-7.32272 15,-4z"
                fill="#fef1d6" />
            <path d="M933,336c0.58408,-2.04427 -1.31114,4.58898 0,0z" fill="#fddab1" />
            <path d="M560,324c2.05055,-4.34815 -4.32551,9.17217 0,0z" fill="#fee6c2" />
            <path
                d="M534,321c3.54126,-0.59021 13.48292,3.12927 10,4c-6.3854,1.59635 -11.77063,-3.70489 -10,-4z"
                fill="#fef4de" />
            <path d="M690,278c-1.40071,0 4.67797,0 0,0z" fill="#ed9337" />
            <path d="M501,192c0,2.35702 -3.08201,-3.63001 -5,-5c-2.42608,-1.73292 5,-2.08369 5,5z"
                fill="#fdf3b7" />
            <path
                d="M874,136c4.42548,2.70259 7.88873,6.85164 11,11c3.11127,4.14836 -12.88511,-12.15121 -11,-11z"
                fill="#ec9130" />
            <path d="M330,139c0,5.78143 0,-8.0936 0,0z" fill="#feeed1" />
            <path d="M550,489c-4.84107,-0.34579 1.49835,0.10702 0,0z" fill="#ed8f33" />
            <path
                d="M892,424c-0.87447,3.4979 -10.82226,9.11117 -9,6c1.92083,-3.27946 9.87447,-9.4979 9,-6z"
                fill="#fce3c1" />
            <path
                d="M681,265c1.46129,0.67219 -3.22243,0.40703 -4.82031,0.22266c-1.85749,-0.21433 -9.5002,-6.81009 4.82031,-0.22266z"
                fill="#ee8a23" />
            <path
                d="M129,208c-0.3459,2.23503 -2.54306,-3.76329 -3.5,-5.8125c-1.38665,-2.96938 4.40279,-0.02089 3.5,5.8125z"
                fill="#fef8ca" />
            <path d="M894,157c-4.33176,-2.40653 9.15739,5.08744 0,0z" fill="#fde5c2" />
            <path d="M466,391c-4.2818,-1.49055 6.00928,2.0919 0,0z" fill="#fddbb7" />
            <path
                d="M350,337c1.33287,-0.33517 5.17851,0.29289 4,1c-4.24918,2.54951 -9.15464,3.96171 -14,5c-3.80101,0.8145 7.53127,-5.37921 10,-6z"
                fill="#f3cd1f" />
            <path d="M406,498c1.7682,-2.11322 -2.68108,3.20422 0,0z" fill="#feecd1" />
            <path d="M395,300c-0.18595,-1.89674 0.80104,8.17061 0,0z" fill="#ef993d" />
            <path
                d="M71.0625,208.75c-0.07779,1.87859 -1.70522,7.09594 -2.0625,5.25c-1.08609,-5.61149 2.55811,-17.21803 2.0625,-5.25z"
                fill="#f3cf2d" />
            <path d="M125,205c-3.94377,-0.29877 1.70787,0.12938 0,0z" fill="#f4d133" />
            <path d="M73,194c-1.40858,-2.81716 2.07187,4.14374 0,0z" fill="#fef7c5" />
            <path d="M905,401c-0.85275,-4.26373 0.08582,0.42908 0,0z" fill="#f28d2b" />
            <path
                d="M845,389c-1.53946,1.31954 -5.24697,2.88257 -6,1c-0.89271,-2.23178 8.50445,-3.14667 6,-1z"
                fill="#f28f28" />
            <path
                d="M394,332c-0.285,-4.84503 5.53017,18.60588 4,14c-1.53017,-4.60588 -3.715,-9.15497 -4,-14z"
                fill="#f09c40" />
            <path d="M667,325c-0.18866,-0.02096 6.46165,0.71796 0,0z" fill="#feeccc" />
            <path
                d="M469.8125,473.6875c-1.60374,0.1106 -6.11853,1.24977 -4.8125,0.3125c5.01583,-3.5996 8.31419,-0.554 4.8125,-0.3125z"
                fill="#fde7c5" />
            <path d="M505,471c3.83382,2.09117 -14.09388,-7.68757 0,0z" fill="#ec9234" />
            <path
                d="M898,411c2.69536,-0.53907 -0.54317,5.66908 -2,8c-0.90082,1.44132 -5.76012,2.52023 -5,1c1.69967,-3.39935 3.27322,-8.25464 7,-9z"
                fill="#fde0b8" />
            <path d="M914,385c-0.59021,-3.54126 1.29468,7.76808 0,0z" fill="#ef8b25" />
            <path
                d="M684,316c-2.22791,2.67349 -12.98416,4.7905 -10,3c1.66667,-1 11.24429,-4.49315 10,-3z"
                fill="#ee8a23" />
            <path
                d="M533,266c0,2.4037 -1.66807,5.41702 -4,6c-1.33333,0.33333 -4.37757,0.32149 -4,-1c0.77703,-2.7196 8,-8.14466 8,-5z"
                fill="#ed9231" />
            <path
                d="M496,235c-3.86304,2.57536 -8.75736,3.11438 -13,5c-1.25591,0.55818 2.90051,-0.17538 4,-1c0.56391,-0.42293 10.41421,-4.94281 9,-4z"
                fill="#f1ce29" />
            <path d="M848,196c-3.7467,1.87335 0.27934,-0.13967 0,0z" fill="#feedcd" />
            <path
                d="M883,148c0.76142,-0.47088 7.76142,4.52912 7,5c-7.45394,4.60968 -8.72447,-3.93355 -7,-5z"
                fill="#f68616" />
            <path d="M275,92c6.34255,10.57092 -4.7855,-7.97584 0,0z" fill="#fbea92" />
            <path d="M265,86c-2.58331,-0.32291 0.25073,0.03134 0,0z" fill="#fdfbd6" />
            <path d="M932,352c-3.56848,17.84241 0.22773,-1.13866 0,0z" fill="#feefd5" />
            <path d="M526,313c0,3.43188 0,-7.98445 0,0z" fill="#f0983e" />
            <path
                d="M116,228c0.76564,-1.7865 6.21419,1.48226 5,3c-8.76882,10.96102 -5.92848,-0.83355 -5,-3z"
                fill="#f6cc23" />
            <path d="M180,185c-0.94381,0.1573 16.21606,-2.70268 0,0z" fill="#fdf9d2" />
            <path d="M536,420c3.55101,1.7755 -12.78761,-6.3938 0,0z" fill="#fee9c7" />
            <path d="M784,87c-9.18076,1.61284 0.27082,-0.04758 0,0z" fill="#eb8928" />
            <path
                d="M330,82c-0.52202,1.95757 -3.92159,1.53282 -5.25,3.0625c-0.45408,0.52288 -0.05986,1.99501 -0.75,1.9375c-4.4605,-0.37171 6.87588,-8.28457 6,-5z"
                fill="#ec912e" />
            <path d="M528,418c3.97175,5.56045 -2.02277,-2.83188 0,0z" fill="#ec8c2b" />
            <path d="M403,363c0,0.8466 0,-11.75905 0,0z" fill="#fde6c3" />
            <path d="M393,334c-2.93972,-2.22643 2.46254,1.86504 0,0z" fill="#fde9cc" />
            <path
                d="M355,291c0.50897,-3.76635 12.78041,7.39108 9,7c-5.52549,-0.5716 -9.25558,-5.10869 -9,-7z"
                fill="#fff5c7" />
            <path
                d="M796,269c2.76986,2.30822 4.73401,5.62402 6,9c0.37012,0.98698 -2.45767,-0.09612 -3,-1c-1.72581,-2.87635 -4.0243,-8.85358 -3,-8z"
                fill="#ef973a" />
            <path
                d="M531,266c-1.52472,2.66827 -3.96863,5.49477 -7,6c-2.65085,0.44181 7.52298,-6.91521 7,-6z"
                fill="#fef0d1" />
            <path
                d="M848,196c3.09266,2.20905 5.25053,5.62601 7,9c0.63843,1.23127 -2.33333,-1.5 -3.5,-2.25c-2.13195,-1.37054 -4.58498,-7.52498 -3.5,-6.75z"
                fill="#fde3bd" />
            <path d="M902,168c0.2856,0.99961 -3.03075,-10.60763 0,0z" fill="#f1983d" />
            <path
                d="M180,87c-2.38514,1.78885 -9.90866,6.29039 -8,4c2.26842,-2.7221 10.38514,-5.78885 8,-4z"
                fill="#f7da5e" />
            <path d="M785.8125,489.125c-8.52414,1.54984 11.9727,-2.17685 0,0z" fill="#fee6c5" />
            <path
                d="M387,401c-1.42915,0.85749 -0.74536,-3.50929 0,-5c0.63246,-1.26491 1.91741,3.84955 0,5z"
                fill="#fef4df" />
            <path
                d="M393,392c1.0732,-0.85856 1.33333,2.66667 1,4c-0.20784,0.83137 -5.20784,4.83137 -5,4c0.7231,-2.89241 1.6719,-6.13752 4,-8z"
                fill="#f19e48" />
            <path
                d="M569,319c-1.96977,2.62636 -5.79522,3.28783 -9,4c-0.16319,0.03627 10.26491,-5.68655 9,-4z"
                fill="#e88c27" />
            <path d="M72,195c0.87538,-2.18844 -4.78617,11.96543 0,0z" fill="#f3d23f" />
            <path d="M838,183c-6.25607,0 3.91719,0 0,0z" fill="#f08a1e" />
            <path
                d="M871,134c1.50849,-1.13137 3.54267,2.17068 4,4c0.71242,2.84967 -3.28758,5.84967 -4,3c-0.56592,-2.26367 -1.86667,-5.6 0,-7z"
                fill="#f5820f" />
            <path d="M867,130c0,3.7855 0,-7.18095 0,0z" fill="#f08c22" />
            <path d="M273,123c-4.2036,9.80839 0.12081,-0.2819 0,0z" fill="#f4ce1f" />
            <path
                d="M862,448c1.91044,-1.19402 2.91044,2.80598 1,4c-2.05784,1.28615 -6.41144,4.35425 -7,2c-0.68599,-2.74398 3.6015,-4.50094 6,-6z"
                fill="#faddb5" />
            <path d="M466,390c0,10.44402 0,-2.10819 0,0z" fill="#f08a1e" />
            <path d="M644,317c3.6584,3.2011 -9.98236,-8.73456 0,0z" fill="#ec9339" />
            <path d="M805,277c3.96275,8.9162 -3.52317,-7.92714 0,0z" fill="#fde3be" />
            <path
                d="M752,267c-0.82327,2.46982 -3.43201,4.572 -6,5c-1.77106,0.29518 6.43461,-6.30384 6,-5z"
                fill="#fef1d5" />
            <path d="M811,163c0,3.31498 0,-5.18116 0,0z" fill="#feeed1" />
            <path d="M171,96c-4.04765,-0.25298 4.33049,0.27066 0,0z" fill="#f9cd10" />
        </g>
    </g>
</svg>